<?xml version="1.0" encoding="UTF-8"?><svg id="Capa_1" xmlns="http://www.w3.org/2000/svg" viewBox="0 0 1284.44 353.33"><defs><style>.cls-1{fill:#000;stroke-width:0px;}</style></defs><path class="cls-1" d="M195.8,77.32c0-1.26.29-2.49.84-3.61l-3.52-2.64-.25.49-4.73,9.34v.02s-.01.01-.01.01l-3.08,6.07c-.11.21-.05.39.01.49.1.17.28.27.46.27.11,0,.21-.04.31-.11l10.39-7.8c-.27-.82-.4-1.67-.4-2.53Z"/><path class="cls-1" d="M221.51,84.15l-.02-.04-6.5-12.8-3.56,2.67c.47,1.05.72,2.19.72,3.35,0,.77-.11,1.52-.31,2.24l5.54,4.16,4.53,3.4c.1.08.2.11.31.11.18,0,.36-.11.46-.27.06-.11.12-.28.01-.49l-1.18-2.32Z"/><path class="cls-1" d="M209.49,83.36c-.94.86-2.05,1.48-3.28,1.83v6.97h13.44c.34,0,.46-.27.49-.35.03-.08.1-.37-.18-.58l-10.47-7.87Z"/><path class="cls-1" d="M188.47,91.23c-.28.21-.21.49-.18.58.03.08.15.35.49.35h12.99v-6.96c-1.13-.31-2.19-.87-3.09-1.64l-10.21,7.67Z"/><path class="cls-1" d="M201.77,69.45v-13.3c0-.39-.32-.53-.53-.53-.11,0-.32.04-.45.29l-5.63,11.12,4.48,3.37c.67-.42,1.38-.73,2.14-.94Z"/><path class="cls-1" d="M212.95,67.28l-.32-.63-.06-.12-5.37-10.6c-.12-.25-.34-.29-.45-.29-.21,0-.53.13-.53.52v13.3c.84.23,1.64.6,2.36,1.1l4.38-3.28Z"/><path class="cls-1" d="M208.58,77.32c0-2.54-2.06-4.6-4.6-4.6s-4.61,2.06-4.61,4.6,2.06,4.61,4.61,4.61,4.6-2.06,4.6-4.61Z"/><path class="cls-1" d="M211.63,277.71c0,1.13-.26,2.24-.75,3.25l3.18,2.38.22-.45,4.26-8.4h0s0-.02,0-.02l2.77-5.46c.09-.19.05-.35-.01-.44-.09-.15-.25-.24-.41-.24-.09,0-.19.04-.28.1l-9.35,7.02c.24.73.36,1.49.36,2.27Z"/><path class="cls-1" d="M188.51,271.57l.02.04,5.84,11.52,3.2-2.4c-.42-.94-.65-1.97-.65-3.01,0-.68.1-1.36.29-2.02l-4.99-3.74-4.07-3.06c-.09-.07-.18-.1-.28-.1-.16,0-.32.1-.41.24-.06.1-.11.25,0,.44l1.06,2.08Z"/><path class="cls-1" d="M199.32,272.28c.84-.77,1.85-1.33,2.94-1.64v-6.27h-12.07c-.32,0-.42.25-.44.32-.03.07-.09.33.16.52l9.42,7.07Z"/><path class="cls-1" d="M218.22,265.21c.25-.19.19-.45.17-.52-.03-.08-.13-.32-.44-.32h-11.68v6.26c1.02.28,1.96.79,2.78,1.48l9.18-6.9Z"/><path class="cls-1" d="M206.27,284.79v11.96c0,.35.28.47.47.47.11,0,.3-.03.41-.25l5.07-10-4.03-3.02c-.6.37-1.24.66-1.92.84Z"/><path class="cls-1" d="M196.21,286.75l.29.56.05.11,4.83,9.53c.11.22.3.25.41.25.19,0,.48-.12.48-.46v-11.96c-.75-.21-1.46-.55-2.12-.99l-3.94,2.95Z"/><path class="cls-1" d="M200.14,277.71c0,2.29,1.86,4.14,4.15,4.14s4.14-1.85,4.14-4.14-1.85-4.14-4.14-4.14-4.15,1.85-4.15,4.14Z"/><polygon class="cls-1" points="117.96 265.59 118.1 264.78 117.35 265.17 117.96 265.59"/><polygon class="cls-1" points="121.42 268.01 125.04 270.53 126.91 260.24 122.41 262.56 121.42 268.01"/><polygon class="cls-1" points="131.22 258.03 128.5 272.95 132.12 275.47 135.72 255.71 131.22 258.03"/><polygon class="cls-1" points="140.03 253.49 135.58 277.89 139.19 280.42 144.54 251.18 140.03 253.49"/><polygon class="cls-1" points="142.66 282.84 146.27 285.36 153.28 246.99 153.33 246.64 148.84 248.96 142.66 282.84"/><path class="cls-1" d="M134.09,77.09l14.63,38.05s.08-.08.13-.12c.81-.74,1.62-1.47,2.45-2.17l-14.49-37.61c-.91.6-1.81,1.22-2.71,1.85Z"/><path class="cls-1" d="M140.06,73.16l14.32,37.15c.48-.37.95-.74,1.43-1.1.45-.34.89-.67,1.35-.99.01-.02.03-.03.04-.04.02-.01.03-.03.05-.04l-14.17-36.78c-1.01.58-2.02,1.19-3.02,1.8Z"/><path class="cls-1" d="M149.04,68.16c-.36.18-.71.35-1.06.54-.52.27-1.03.53-1.55.81l14.03,36.42c.23-.15.45-.3.68-.44.13-.09.27-.18.4-.25.36-.24.72-.46,1.09-.68.28-.18.55-.34.83-.51l-13.93-36.14c-.17.08-.33.17-.49.25Z"/><path class="cls-1" d="M154.68,65.52c-.31.13-.62.27-.93.41-.27.11-.53.24-.8.36l13.82,35.88c.38-.21.77-.41,1.15-.61.32-.17.65-.34.98-.49.11-.06.23-.13.35-.18.06-.03.11-.06.17-.08.15-.08.3-.15.45-.22l-13.75-35.67c-.49.2-.97.41-1.46.62Z"/><path class="cls-1" d="M161.5,62.83c-.24.08-.48.17-.72.27-.24.08-.47.17-.7.25-.14.05-.28.11-.42.16l13.3,34.52,2.09-4.22-12.13-31.48c-.48.17-.95.33-1.43.5Z"/><path class="cls-1" d="M168.9,60.45c-.22.06-.44.13-.65.18-.58.17-1.15.34-1.72.52l10.81,28.05,2.09-4.21-9.56-24.81c-.32.09-.65.18-.97.27Z"/><path class="cls-1" d="M173.56,59.22l8.15,21.15,2.09-4.21-6.83-17.73c-1.15.24-2.28.5-3.41.78Z"/><path class="cls-1" d="M188.18,67.35l-3.95-10.23c-.69.1-1.38.21-2.05.33-.48.08-.96.17-1.44.26l5.34,13.86,2.1-4.21Z"/><path class="cls-1" d="M192.56,58.53l-.91-2.34c-.23.02-.46.04-.69.07-.23.02-.46.04-.7.08-.18.01-.36.03-.53.06-.08,0-.16.01-.24.03-.44.04-.87.1-1.31.15-.03,0-.06,0-.1.01l2.38,6.16,2.09-4.21Z"/><path class="cls-1" d="M98.73,117.33l4.02.26c.72.04,1.34-.5,1.39-1.22l.26-4.02c.04-.72-.5-1.34-1.22-1.39l-1.96-.13c-1.25,1.9-2.43,3.83-3.55,5.8.2.39.59.66,1.06.7Z"/><path class="cls-1" d="M111.57,122.92c.09,0,.18,0,.26,0l.25-3.86c.04-.72-.5-1.34-1.22-1.39l-4.02-.25c-.72-.05-1.34.5-1.39,1.22l-.26,4.02c0,.09,0,.18.02.26h6.36Z"/><path class="cls-1" d="M108.77,113.01l4.02.26c.72.04,1.34-.5,1.39-1.22l.26-4.02c.04-.72-.5-1.34-1.22-1.39l-4.02-.26c-.72-.04-1.34.5-1.39,1.22l-.26,4.02c-.04.72.5,1.34,1.22,1.39Z"/><path class="cls-1" d="M121.86,119.87l.26-4.02c.04-.72-.5-1.34-1.22-1.39l-4.02-.26c-.72-.04-1.34.5-1.39,1.22l-.26,4.02c-.04.72.5,1.34,1.22,1.39l4.02.26c.72.04,1.34-.5,1.39-1.22Z"/><path class="cls-1" d="M121.51,130.18l4.02.26c.72.05,1.34-.5,1.39-1.22l.26-4.01c.04-.72-.5-1.34-1.22-1.39l-4.02-.25c-.72-.05-1.34.5-1.39,1.22l-.26,4.01c-.04.72.5,1.34,1.22,1.39Z"/><path class="cls-1" d="M127.69,138.37c1.25,0,2.47.17,3.63.49.07-.15.13-.27.2-.42,0,0,0,0,0,0h0s.25-3.87.25-3.87c.04-.72-.5-1.34-1.22-1.39l-4.02-.26c-.72-.04-1.34.5-1.39,1.22l-.06.89v.02c.05.48.08.96.08,1.45v1.87h2.53Z"/><path class="cls-1" d="M117.84,105.51l-.26,4.01c-.04.72.5,1.35,1.22,1.39l4.02.25c.72.05,1.34-.5,1.39-1.22l.26-4.01c.04-.72-.5-1.34-1.22-1.4l-4.02-.25c-.72-.05-1.34.5-1.39,1.22Z"/><path class="cls-1" d="M126.86,118.33l4.01.26c.72.04,1.34-.5,1.39-1.22l.25-4.02c.05-.72-.5-1.34-1.22-1.39l-4.01-.26c-.72-.04-1.34.5-1.39,1.22l-.25,4.02c-.05.72.5,1.34,1.22,1.39Z"/><path class="cls-1" d="M135.88,128.54c.72.05,1.34-.51,1.39-1.22l.25-4.02c.05-.72-.5-1.34-1.22-1.39l-4.01-.26c-.72-.05-1.34.5-1.39,1.22l-.25,4.02c-.05.72.5,1.34,1.22,1.39l4.01.26Z"/><path class="cls-1" d="M127.88,102.3l-.26,4.01c-.04.72.5,1.34,1.22,1.4l4.02.25c.72.05,1.34-.5,1.39-1.22l.26-4.01c.04-.72-.5-1.35-1.22-1.39l-4.02-.25c-.72-.05-1.34.5-1.39,1.22Z"/><path class="cls-1" d="M112.97,102.01l4.02.25c.72.05,1.34-.5,1.39-1.22l.26-4.01c.04-.72-.5-1.34-1.22-1.4l-4.02-.25s-.08,0-.13,0h0c-.42.48-.85.94-1.27,1.42l-.25,3.82c-.04.72.5,1.34,1.22,1.39Z"/><path class="cls-1" d="M124.12,92.51c-.72-.04-1.34.5-1.39,1.22l-.26,4.02c-.04.72.5,1.34,1.22,1.39l4.02.26c.72.04,1.34-.5,1.39-1.22l.26-4.02c.04-.72-.5-1.34-1.22-1.39l-4.02-.26Z"/><path class="cls-1" d="M122.88,88.75l4.02.26c.72.04,1.34-.5,1.39-1.22l.2-3.07h0s.06-.94.06-.94c.04-.72-.5-1.34-1.22-1.39h-.17s-.04-.01-.04-.01c-.38.31-.76.62-1.14.94-.3.25-.6.49-.89.75-.1.08-.2.17-.3.25-.1.08-.21.17-.31.26-.08.07-.16.14-.25.21-.18.16-.37.32-.55.48-.67.58-1.34,1.17-2,1.77l-.02.32c-.04.72.5,1.34,1.22,1.39Z"/><path class="cls-1" d="M133.55,95.59l1.17.08h.19s-2.27-5.77-2.27-5.77c-.02.1-.04.19-.05.29l-.1,1.57-.16,2.45c-.04.72.5,1.34,1.22,1.39Z"/><path class="cls-1" d="M141.92,113.55l-2.19-5.58-2.78-.18c-.72-.04-1.34.5-1.39,1.22l-.26,4.02c-.04.72.51,1.34,1.22,1.39l4.02.26c.69.04,1.29-.46,1.38-1.13Z"/><path class="cls-1" d="M138.57,105l-1.2-3.06-.11,1.66c-.04.72.5,1.34,1.22,1.39h.08Z"/><path class="cls-1" d="M142.01,117.13c-.72-.04-1.34.5-1.39,1.22l-.26,4.02c-.03.46.18.89.54,1.14,1.08-1.35,2.21-2.66,3.38-3.93l-.93-2.36-1.35-.09Z"/><path class="cls-1" d="M219.59,64.52l15.07-5.48,15.07,5.48,2.5-.91h.03c-7.26-2.89-14.55-4.99-22.29-6.39l-.1.03-10.29,3.74-3.6-1.31,1.79,4.17,1.81.66Z"/><path class="cls-1" d="M234.67,64.79l-14.27,5.19,1.31,3.05,12.95-4.71,15.07,5.48,13.88-5.05s-.07-.03-.1-.05c-.47-.25-.95-.49-1.44-.73-.17-.08-.34-.17-.51-.25-.34-.17-.68-.34-1.03-.5-.34-.17-.7-.32-1.04-.49l-9.76,3.55-15.07-5.48Z"/><polygon class="cls-1" points="249.74 83.06 264.81 77.58 270.83 79.76 272.82 76.97 264.81 74.06 249.74 79.54 234.67 74.06 223.84 77.99 225.15 81.04 234.67 77.58 249.74 83.06"/><polygon class="cls-1" points="249.74 92.33 264.81 86.86 265.57 87.13 267.57 84.33 264.81 83.33 249.74 88.81 234.67 83.33 227.28 86.01 228.59 89.06 234.67 86.86 249.74 92.33"/><path class="cls-1" d="M234.67,92.59l-3.94,1.44.44,1.02c1.96.49,3.9,1.05,5.81,1.67.96.31,1.9.64,2.85.98.95.34,1.88.7,2.81,1.07.5.2.99.4,1.49.62.25.1.5.21.75.32.47.2.95.41,1.42.63l3.44,1.25,7.42-2.7,3.41-4.77-10.83,3.94-15.07-5.48Z"/><path class="cls-1" d="M222.27,293.44c-.72,1.22-1.43,2.45-2.15,3.67.74-.08,1.47-.17,2.2-.26.17-.02.34-.04.51-.06l.84-.11c.09-.01.18-.03.27-.04-.42-1.06-.84-2.12-1.27-3.18-.06-.14-.3-.15-.39-.01Z"/><path class="cls-1" d="M230.58,265.86c.91-1.77,1.79-3.55,2.65-5.33,0,0,0,0,0-.01-.37.11-.74.22-1.12.32-.48.14-.97.27-1.46.4h0s-1.37,2.78-1.37,2.78h0c.3.62.6,1.21.9,1.82.07.15.32.16.39.02Z"/><path class="cls-1" d="M236.73,278.9c2.98-5.39,5.83-10.82,8.45-16.29.02-.04.02-.08,0-.13-.68-1.34-1.37-2.68-2.07-4.01-.08-.15-.32-.16-.39-.02-2.54,5.46-5.3,10.91-8.21,16.31-.02.04-.02.08,0,.13.62,1.33,1.23,2.66,1.83,3.99.06.15.32.16.39.02Z"/><path class="cls-1" d="M249.28,271.55c-2.83,5.44-5.87,10.83-9.06,16.19-.02.04-.02.08-.01.13.54,1.32,1.07,2.63,1.58,3.94.06.15.3.16.39.02,3.29-5.32,6.44-10.7,9.37-16.12.02-.04.02-.09,0-.13-.61-1.34-1.24-2.67-1.88-4.01-.07-.15-.32-.16-.39-.02Z"/><path class="cls-1" d="M255.14,284.58c-.82,1.38-1.65,2.76-2.49,4.13.48-.2.95-.41,1.43-.62.37-.17.74-.33,1.12-.5.44-.2.88-.4,1.32-.61-.32-.79-.65-1.58-.98-2.38-.06-.15-.31-.16-.39-.02Z"/><path class="cls-1" d="M262.02,256.66c.08.15.33.16.39.01,2.16-5.18,4.03-10.38,5.55-15.59-.09.08-.17.15-.26.23-.38.34-.76.67-1.15,1.01-.47.41-.94.8-1.42,1.2,0,0-.01.01-.02.03-.4.33-.81.66-1.21.98-.55.44-1.1.87-1.65,1.29-.77,2.22-1.6,4.45-2.48,6.67-.01.05-.01.09.01.13.76,1.34,1.51,2.69,2.24,4.04Z"/><path class="cls-1" d="M266.9,265.8c.69,1.34,1.38,2.69,2.04,4.03.08.15.32.16.39.02,2.69-5.48,5.06-11,7.04-16.55.01-.04,0-.09-.02-.13-.8-1.36-1.61-2.71-2.43-4.06-.09-.15-.33-.16-.38-.02-1.84,5.55-4.09,11.08-6.65,16.57-.02.04-.01.09,0,.13Z"/><path class="cls-1" d="M274.88,276.26c.16-.11.31-.22.46-.32.13-.09.26-.19.39-.27.13-.1.26-.19.39-.28.4-.29.81-.58,1.2-.87.23-.17.46-.34.7-.52.21-.16.42-.31.63-.47.83-.63,1.66-1.27,2.48-1.93.04-.03.07-.06.11-.09.15-.11.3-.24.45-.35.74-1.53,1.45-3.06,2.12-4.6.02-.04.02-.09,0-.13-.72-1.35-1.45-2.71-2.2-4.06-.08-.15-.33-.16-.39-.02-1.97,4.76-4.23,9.5-6.73,14.18.13-.09.25-.18.38-.26Z"/><path class="cls-1" d="M232.18,273.55c-.62-1.33-1.25-2.66-1.89-3.99-.07-.15-.32-.16-.39-.02-2.82,5.42-5.77,10.81-8.78,16.17-.02.04-.03.08,0,.13.58,1.32,1.15,2.64,1.7,3.95.06.14.31.15.39.02,3.08-5.35,6.1-10.72,8.99-16.14.02-.04.02-.08,0-.13Z"/><path class="cls-1" d="M235.88,282.55c-2.57,4.51-5.22,8.99-7.93,13.44.42-.07.84-.15,1.25-.23.27-.05.54-.1.82-.16.02,0,.06,0,.09-.01.14-.03.28-.06.43-.08.27-.06.55-.11.82-.17.24-.05.48-.1.72-.16.27-.05.53-.11.8-.17.01,0,.03,0,.04,0h0c1.71-2.78,3.38-5.55,5.02-8.35.03-.04.03-.09.01-.13-.55-1.33-1.12-2.64-1.7-3.97-.06-.15-.31-.16-.39-.02Z"/><path class="cls-1" d="M249.96,267.86c2.72-5.45,5.22-10.94,7.41-16.45.02-.04.01-.09,0-.13-.27-.48-.55-.96-.82-1.45-.16.11-.33.22-.5.32-.18.11-.36.23-.55.34-.11.08-.22.15-.34.21-.33.21-.66.41-.99.61-.15.09-.3.19-.44.27-.34.21-.67.41-1.01.6-1.58,3.85-3.32,7.69-5.16,11.51-.02.04-.02.09,0,.13.68,1.34,1.35,2.68,2.01,4.02.07.15.32.16.39.01Z"/><path class="cls-1" d="M264.51,264.45c-.7-1.34-1.41-2.69-2.12-4.04-.08-.15-.33-.16-.39-.01-2.42,5.5-5.15,10.96-8.11,16.38-.02.04-.02.09,0,.13.61,1.34,1.2,2.67,1.78,3.99.06.15.31.16.39.02,3.07-5.4,5.92-10.85,8.46-16.35.02-.04.02-.08,0-.13Z"/><path class="cls-1" d="M268.67,273.56c-1.74,3.38-3.61,6.73-5.57,10.07.08-.04.15-.08.22-.12.41-.23.82-.46,1.24-.69.77-.44,1.53-.88,2.29-1.33.11-.07.22-.13.34-.2.34-.2.67-.41,1-.61,0,0,.02-.01.02-.02.45-.27.89-.55,1.34-.84.11-.07.23-.15.34-.21,0,0,0,0,0,0,.34-.63.69-1.25,1.03-1.87.02-.04.03-.09,0-.13-.62-1.34-1.24-2.67-1.88-4.01-.07-.15-.32-.16-.39-.02Z"/><path class="cls-1" d="M273.23,245.33c.09.15.33.16.37.01.78-2.56,1.47-5.11,2.06-7.67l-2.02-2.07c-.68.71-1.36,1.4-2.06,2.09h0c-.29,1.16-.6,2.32-.92,3.47-.01.04,0,.09.03.13.85,1.34,1.7,2.69,2.54,4.04Z"/><path class="cls-1" d="M281.17,258.58c.08.15.33.16.39.01,1.41-3.68,2.64-7.37,3.67-11.06l-3.26-3.36c-.89,3.41-1.95,6.82-3.17,10.22-.02.04-.01.09.01.13.8,1.36,1.59,2.71,2.36,4.06Z"/><path class="cls-1" d="M288.41,266.62c.08.15.33.16.39.01,1.41-3.68,2.64-7.37,3.67-11.06l-3.26-3.36c-.89,3.41-1.95,6.82-3.17,10.22-.02.04-.01.09.01.13.8,1.36,1.59,2.71,2.36,4.06Z"/><path class="cls-1" d="M267.58,106.13h-4.08c-.58,0-1.05.47-1.05,1.05v1.74s.06.04.09.06h0c.3.22.6.44.9.67.04.03.08.06.13.09,0,0,.01,0,.02.01.54.41,1.07.82,1.6,1.24.16.12.31.24.47.37h0s.04.04.06.05c.22.18.44.36.67.54.15.12.3.25.45.37h.75c.58,0,1.05-.47,1.05-1.05v-4.08c0-.58-.47-1.05-1.05-1.05Z"/><path class="cls-1" d="M272.83,114.5h-3.43c1.35,1.19,2.69,2.43,4,3.71.08.08.16.15.23.23h0c.08.08.16.16.24.24v-3.13c0-.58-.47-1.05-1.05-1.05Z"/><path class="cls-1" d="M270.23,101.89v-4.08c0-.58-.47-1.05-1.05-1.05h-2.55l-2.59,3.56v1.57c0,.58.48,1.05,1.05,1.05h4.08c.58,0,1.05-.47,1.05-1.05Z"/><path class="cls-1" d="M272.63,102.55h4.08c.58,0,1.05.47,1.05,1.05v4.08c0,.58-.47,1.05-1.05,1.05h-4.08c-.58,0-1.05-.47-1.05-1.05v-4.08c0-.58.47-1.05,1.05-1.05Z"/><path class="cls-1" d="M281.96,110.92h-4.08c-.58,0-1.05.47-1.05,1.05v4.08c0,.58.47,1.05,1.05,1.05h.58l4.56-5.16c-.02-.57-.48-1.02-1.05-1.02Z"/><rect class="cls-1" x="273.17" y="93.18" width="6.18" height="6.19" rx="1.05" ry="1.05"/><path class="cls-1" d="M286.89,104.1v-4.08c0-.58-.48-1.05-1.05-1.05h-4.08c-.58,0-1.05.47-1.05,1.05v4.08c0,.58.47,1.05,1.05,1.05h4.08c.58,0,1.05-.47,1.05-1.05Z"/><path class="cls-1" d="M285.96,108.4v.19l1.1-1.24h-.05c-.58,0-1.05.47-1.05,1.05Z"/><path class="cls-1" d="M287.44,89.61h-4.08c-.58,0-1.05.47-1.05,1.05v4.08c0,.58.48,1.05,1.05,1.05h4.08c.58,0,1.05-.47,1.05-1.05v-4.08c0-.58-.47-1.05-1.05-1.05Z"/><path class="cls-1" d="M272.83,91.42c.58,0,1.05-.47,1.05-1.05v-3.55l-3.36,4.61h2.31Z"/><path class="cls-1" d="M278.07,88.15h4.08c.58,0,1.04-.48,1.04-1.05v-4.08c0-.58-.47-1.05-1.04-1.05h-4.08c-.58,0-1.05.47-1.05,1.05v4.08c0,.58.47,1.05,1.05,1.05Z"/><path class="cls-1" d="M294.97,95.4h-4.08c-.58,0-1.05.47-1.05,1.04v4.08c0,.58.47,1.05,1.05,1.05h1.25l3.89-4.4v-.73c0-.58-.48-1.04-1.05-1.04Z"/><path class="cls-1" d="M292.15,92.7h3.79c-.8-.79-1.6-1.57-2.4-2.34-.41-.39-.81-.77-1.22-1.15-.41-.37-.81-.75-1.22-1.12v3.56c0,.58.47,1.05,1.05,1.05Z"/><path class="cls-1" d="M119.26,245.02c-.4,4.13-.81,8.3-1.22,12.49l4.09-2.06c.22-2.1.43-4.2.64-6.28,0-.05-.01-.1-.04-.15-1.03-1.36-2.07-2.72-3.1-4.09-.11-.15-.35-.09-.37.09Z"/><path class="cls-1" d="M137.53,241.56c-.23,2.15-.46,4.31-.71,6.48l4.11-2.07h0c.02-.17.04-.31.06-.47,0-.05,0-.1-.04-.14-1.01-1.29-2.03-2.59-3.06-3.9-.11-.15-.35-.08-.37.1Z"/><path class="cls-1" d="M98.05,225.87c-.36,3.73-.73,7.48-1.08,11.26.25.45.5.9.75,1.34.85,1.48,1.74,2.95,2.67,4.39.51-5.71,1.06-11.37,1.59-16.97h-3.05c-.3,0-.59-.01-.88-.03Z"/><path class="cls-1" d="M108.39,226.79c.03-.3.06-.59.08-.89h-1.15c.23.32.47.65.7.97.11.15.35.11.36-.08Z"/><path class="cls-1" d="M109.4,231.28c-.11-.15-.35-.1-.37.08-.63,6.89-1.29,13.87-1.91,20.93,1.14,1.44,2.32,2.85,3.54,4.24.63-7.03,1.29-13.99,1.93-20.86,0-.05-.01-.11-.04-.15-1.05-1.4-2.09-2.81-3.14-4.23Z"/><path class="cls-1" d="M118.64,240.51c.56-5.98,1.1-11.88,1.57-17.71-.17.14-.34.27-.51.4-.2.15-.4.29-.6.42-.16.11-.32.22-.49.31-.16.11-.34.2-.51.3-.23.13-.46.25-.7.35-.18.09-.36.17-.54.25-.16.08-.34.14-.51.2-.08.03-.17.06-.25.1-.31,3.69-.65,7.41-1,11.17,0,.05.01.11.04.15,1.05,1.4,2.09,2.78,3.13,4.16.12.15.35.09.37-.1Z"/><path class="cls-1" d="M126.59,224.17c.36-4.63.66-9.2.89-13.73h0s-2.31,0-2.31,0v1.87c0,.24,0,.47-.02.7-.03.47-.07.93-.14,1.38-.03.22-.08.44-.12.65-.08.39-.18.78-.29,1.17-.04.13-.08.27-.13.4-.15.46-.34.92-.54,1.36-.06.14-.13.28-.2.42-.14.29-.28.56-.46.83-.08.13-.17.27-.25.4h0c0,.13-.02.26-.02.39,0,.05.01.1.04.15,1.06,1.38,2.13,2.74,3.19,4.09.12.15.35.09.36-.08Z"/><path class="cls-1" d="M128.91,252.02c.71-6.55,1.38-13.01,1.96-19.39,0-.05-.01-.1-.04-.15-1.05-1.33-2.11-2.68-3.17-4.02-.11-.15-.35-.1-.36.09-.59,6.95-1.29,14-2.03,21.16,0,.05.01.1.04.15.73.97,1.46,1.93,2.19,2.88l1.41-.71h0Z"/><path class="cls-1" d="M134.93,224.4c-.25-.42-.48-.84-.72-1.27-.24,3.33-.52,6.69-.83,10.08,0,.05.01.1.04.14,1.05,1.32,2.1,2.64,3.14,3.95.11.15.35.08.36-.1.28-2.83.54-5.63.77-8.42-.63-.93-1.23-1.86-1.81-2.81-.27-.44-.53-.88-.79-1.31-.06-.09-.11-.18-.16-.27Z"/><path class="cls-1" d="M148.85,241.97c-.31-.3-.62-.6-.93-.91-.2-.2-.41-.41-.61-.61-.5-.49-.99-1-1.47-1.51-.48-.51-.95-1.01-1.43-1.53-.24,2.38-.51,4.78-.79,7.19l4.13-2.08,1.1-.56Z"/><path class="cls-1" d="M104.25,144.3h3.16c.47,0,.89-.2,1.19-.53.24-.27.39-.64.39-1.04v-3.16c0-.87-.71-1.58-1.58-1.58h-3.16c-.69,0-1.27.45-1.48,1.06-.01.02-.02.04-.02.06-.04.15-.07.3-.07.46v3.16c0,.87.7,1.57,1.57,1.57Z"/><path class="cls-1" d="M108.85,205.18c-.25-.55-.8-.94-1.45-.94h-3.16c-.87,0-1.57.71-1.57,1.58v3.16c0,.06,0,.11,0,.17,0,.01,0,.03,0,.04.1.77.76,1.37,1.56,1.37h3.16c.87,0,1.58-.7,1.58-1.57v-3.16c0-.22-.04-.42-.13-.61,0,0,0-.01,0-.02Z"/><path class="cls-1" d="M136.86,177.33s.01,0,.02,0c.15.06.32.08.49.08h3.16c.87,0,1.58-.7,1.58-1.57v-3.16c0-.81-.62-1.49-1.41-1.57h-.01c-.05,0-.1,0-.15,0h-3.16c-.87,0-1.57.71-1.57,1.58v3.16c0,.69.44,1.27,1.06,1.48Z"/><path class="cls-1" d="M74.29,171.12h-3.16c-.11,0-.22.01-.32.03-.02,0-.04,0-.05.01-.69.17-1.21.79-1.21,1.53v3.16c0,.87.71,1.57,1.58,1.57h3.16c.31,0,.6-.09.84-.25.01,0,.03-.01.04-.02.42-.28.7-.75.7-1.3v-3.16c0-.87-.71-1.58-1.58-1.58Z"/><path class="cls-1" d="M134.6,152.41c0-.13.01-.27.01-.41,0-3.49-2.83-6.32-6.32-6.32-.11,0-.22,0-.32,0h-9.49v-9.19c0-3.47-2.81-6.27-6.28-6.27h-12.64c-3.47,0-6.27,2.81-6.27,6.27v9.19h-9.84c-1.85,0-3.52.8-4.66,2.07-1,1.11-1.62,2.59-1.62,4.2v9.84h-9.18c-3.47,0-6.27,2.81-6.27,6.28v12.64c0,3.47,2.81,6.27,6.27,6.27h9.18v9.84c0,3.47,2.81,6.28,6.28,6.28h9.84v9.18c0,3.47,2.81,6.28,6.27,6.28h12.64c3.47,0,6.28-2.81,6.28-6.28v-9.18h9.84c2.32,0,4.34-1.25,5.42-3.12.55-.93.85-2.01.85-3.16v-9.84h9.19c3.47,0,6.27-2.81,6.27-6.27v-12.64c0-3.47-2.81-6.28-6.27-6.28h-9.19v-9.4ZM143.79,164.34c2.06,0,3.74,1.68,3.74,3.75v12.64c0,2.06-1.68,3.74-3.74,3.74h-9.19c-1.4,0-2.54,1.13-2.54,2.53v9.84c0,.68-.17,1.31-.5,1.89-.67,1.15-1.91,1.86-3.23,1.86h-9.84c-1.4,0-2.53,1.14-2.53,2.54v9.18c0,2.07-1.68,3.75-3.75,3.75h-12.64c-2.06,0-3.74-1.68-3.74-3.75v-9.18c0-1.4-1.13-2.54-2.53-2.54h-9.84c-2.06,0-3.75-1.68-3.75-3.74v-9.84c0-1.4-1.13-2.53-2.53-2.53h-9.18c-2.06,0-3.74-1.68-3.74-3.74v-12.64c0-2.07,1.68-3.75,3.74-3.75h9.18c1.4,0,2.53-1.13,2.53-2.54v-9.84c0-.92.34-1.81.97-2.5.71-.79,1.72-1.23,2.78-1.23h9.84c1.4,0,2.53-1.13,2.53-2.54v-9.19c0-2.06,1.68-3.74,3.74-3.74h12.64c2.07,0,3.75,1.68,3.75,3.74v9.19c0,1.4,1.14,2.54,2.53,2.54h9.49s.1,0,.15,0c.03,0,.06,0,.1,0h.08c2.09,0,3.78,1.7,3.78,3.78,0,.1,0,.19-.01.28,0,.04,0,.08,0,.12v9.4c0,1.4,1.13,2.54,2.54,2.54h9.19Z"/><path class="cls-1" d="M109.01,166.79c-.14-.03-.32-.07-.47-.07h-2.71s-2.71,0-2.71,0c-.15,0-.33.04-.47.07-2.91.27-4.11,1.46-4.22,4.36-.05,1.95-.01,3.9-.02,5.88.03.55.1,1.1.23,1.62.44,1.6,1.44,2.7,3.05,2.95,1.37.2,2.73.31,4.11.33h0s.02,0,.03,0h.03c1.38-.02,2.74-.13,4.11-.33,1.62-.24,2.62-1.34,3.05-2.95.14-.52.2-1.06.23-1.62,0-1.98.03-3.93-.02-5.88-.11-2.9-1.31-4.1-4.22-4.36ZM110.16,177.67c-.15.54-.58.92-1.15,1.13-.14.04-.28.1-.47.1-.89.09-1.8.13-2.71.14-.91,0-1.81-.05-2.71-.14-.19,0-.33-.06-.47-.1-.57-.21-1-.59-1.15-1.13-.11-.45-.18-.92-.18-1.41,0-1.33-.03-2.67.01-4,.08-2.18.52-2.67,2.68-2.69.6,0,1.21,0,1.81,0s1.21,0,1.81,0c2.16.02,2.6.51,2.68,2.69.04,1.33.01,2.66.01,4,0,.48-.07.96-.18,1.41Z"/><path class="cls-1" d="M120.95,162.92c-.22-1.44-1.09-2.46-2.57-2.76-.83-.17-1.73-.17-2.59-.2l-9.96.03-9.96-.03c-.86.03-1.77.03-2.59.2-1.48.3-2.34,1.33-2.57,2.76-.03.45-.03.96-.04,1.4l-.07,20.04c0,.48,0,.96.07,1.4.24,1.83,1.43,2.99,3.3,3.2.61.09,1.26.1,1.88.1l9.95.03h0s.03,0,.03,0h.03s0,0,0,0l9.96-.03c.62,0,1.27,0,1.88-.1,1.87-.21,3.06-1.37,3.3-3.2.07-.44.07-.92.07-1.4l-.07-20.04c0-.45,0-.96-.04-1.4ZM118.29,184.93c-.11.75-.64,1.27-1.43,1.37-.47.07-.94.11-1.41.12-3.21,0-6.41.03-9.61.04-3.2-.01-6.4-.03-9.61-.04-.47,0-.94-.04-1.41-.12-.8-.1-1.32-.62-1.43-1.37-.08-.52-.1-1.07-.1-1.65l.06-17.69c0-.53.02-1.09.11-1.63.14-.68.57-1.1,1.3-1.23.51-.1,1.09-.12,1.66-.12l9.4.03h.05l9.4-.03c.57,0,1.15.03,1.66.12.72.14,1.15.55,1.3,1.23.08.54.11,1.1.11,1.63l.06,17.69c0,.58-.02,1.13-.1,1.65Z"/><path class="cls-1" d="M128.38,155.55c-.21-1.37-1.01-2.25-2.35-2.73-.83-.31-1.7-.33-2.56-.32l-17.64.06-17.64-.06c-.86,0-1.74.01-2.56.32-1.34.48-2.14,1.36-2.35,2.73-.15.61-.15,1.23-.15,1.88l-.11,33.2c0,.41,0,.78.03,1.16.21,2.57,1.47,3.91,4.02,4.12.65.07,1.3.07,1.91.08l16.83.06h.05l16.83-.06c.61,0,1.26,0,1.91-.08,2.55-.21,3.81-1.55,4.02-4.12.03-.38.03-.75.03-1.16l-.11-33.2c0-.66,0-1.28-.15-1.88ZM125.88,191.5c-.15,1.09-.8,1.67-1.87,1.8-.47.08-.97.08-1.45.09l-16.73.06-16.73-.06c-.48,0-.98,0-1.45-.09-1.07-.13-1.72-.72-1.87-1.8-.06-.63-.09-1.28-.09-1.88l.11-30.6c0-.72,0-1.45.08-2.13.11-1.02.68-1.6,1.7-1.67.86-.11,1.76-.1,2.59-.1l15.64.05h.05l15.64-.05c.83,0,1.73,0,2.59.1,1.01.07,1.59.65,1.7,1.67.07.68.08,1.4.08,2.13l.11,30.6c0,.61-.03,1.26-.09,1.88Z"/><polygon class="cls-1" points="183.62 275.33 183.62 275.31 183.62 275.31 183.62 275.31 182.78 273.63 182.37 274.04 183.6 275.29 183.62 275.33"/><polygon class="cls-1" points="151.93 282.56 153.73 284.4 157.16 280.92 153.73 277.44 152.58 278.61 151.93 282.56"/><polygon class="cls-1" points="154.89 264.86 153.95 270.44 157.16 267.19 154.89 264.86"/><path class="cls-1" d="M160.81,251.3c-.87-.62-1.77-1.29-2.69-2.02l2.33,2.39.35-.37Z"/><polygon class="cls-1" points="157.04 287.79 158.97 289.77 161.16 290.58 163.87 287.79 160.45 284.31 157.04 287.79"/><polygon class="cls-1" points="157.05 274.06 160.46 277.54 163.87 274.06 160.46 270.56 157.05 274.06"/><polygon class="cls-1" points="163.87 260.3 160.46 256.82 157.05 260.3 160.46 263.8 163.87 260.3"/><polygon class="cls-1" points="168.2 255.88 163.87 253.36 163.79 253.44 167.18 256.94 168.2 255.88"/><polygon class="cls-1" points="166.16 292.23 168.99 293.02 167.18 291.19 166.16 292.23"/><polygon class="cls-1" points="163.78 280.93 167.19 284.41 170.6 280.93 167.19 277.45 163.78 280.93"/><polygon class="cls-1" points="163.78 267.19 167.19 270.67 170.6 267.19 167.19 263.69 163.78 267.19"/><path class="cls-1" d="M176.37,261.3l-1.1-2.27-2.54-1c.57.25,1.08.45,1.5.62-.43-.16-.93-.37-1.5-.62l-2.23,2.27,3.44,3.5,2.44-2.5Z"/><polygon class="cls-1" points="173.92 284.31 170.5 287.79 173.92 291.29 177.33 287.79 173.92 284.31"/><polygon class="cls-1" points="177.33 274.06 173.92 270.56 170.49 274.06 173.92 277.54 177.33 274.06"/><polygon class="cls-1" points="180.85 270.46 178.57 265.8 177.23 267.18 180.64 270.67 180.85 270.46"/><polygon class="cls-1" points="177.22 294.67 177.56 295.02 177.56 295.02 182.8 295.94 184.07 294.67 180.66 291.19 177.22 294.67"/><polygon class="cls-1" points="187.36 291.3 189.8 288.81 187.84 284.79 187.36 284.32 183.95 287.79 187.36 291.3"/><polygon class="cls-1" points="177.22 280.93 180.65 284.41 184.07 280.93 180.65 277.45 177.22 280.93"/><path class="cls-1" d="M192.01,293.31l-1.33,1.35,2.52,2.56c.25.04.5.06.75.08l-1.94-4Z"/><path class="cls-1" d="M312.44,88.55c-7.45-8.26-15.51-15.57-23.99-21.75-1.62-1.15-3.68-2.61-5.83-4.01-2.46-1.61-5.07-3.19-7.75-4.7-19.2-10.77-40.77-16.59-64.14-17.31-1.55-.04-3.07-.09-4.62-.09h-.54c-2.73,0-5.46.06-8.34.2-26.13,1.35-49.69,9.08-70.08,22.98-1.74,1.15-3.58,2.47-5.4,3.85-4.83,3.65-9.55,7.71-14.01,12.07-11.67,11.4-20.93,24.25-27.5,38.19-1.37,2.9-2.66,5.95-3.94,9.32l-.05.14-.16.4c-.57,1.53-1.12,3.1-1.65,4.73-6.3,2.71-10.91,8.33-12.31,15.06-9.13,2.33-15.91,10.62-15.91,20.46v12.64c0,9.85,6.77,18.14,15.9,20.47,1.23,5.93,4.94,11.02,10.19,14.01,5.25,19.9,14.96,37.71,28.91,53.05,2,2.18,3.89,4.14,5.8,6.01,6.84,6.67,14.24,12.53,22.03,17.44,6.06,3.82,12.45,7.15,18.99,9.89,14.94,6.27,31.58,9.92,49.46,10.83,3.14.16,6.27.24,9.31.24h1.21s1.08-.01,1.08-.01c.09,0,.19,0,.28,0l.89-.03,1.19-.04.69-.02c.55-.02,1.1-.03,1.65-.06.12,0,.25-.02.37-.03h.14c.12,0,.19-.02.31-.02.61-.03,1.21-.06,1.8-.11h.19c.34-.03.68-.06,1.02-.1.56-.03,1.14-.08,1.7-.14h.14s.19-.02.19-.02c1.55-.12,2.99-.28,4.44-.48l.37-.05.58-.08.45-.06c.5-.07,1.01-.14,1.51-.22.46-.06.93-.14,1.4-.21l.46-.07c.19-.03.37-.06.56-.1.21-.03.41-.06.61-.1l.58-.1c.34-.06.68-.12,1.04-.19.18-.03.38-.07.59-.11.25-.05.5-.09.75-.14l.51-.1c.17-.03.35-.07.52-.11l.35-.07c.16-.03.33-.07.49-.1.02,0,.04,0,.05-.01.48-.1.96-.2,1.45-.31l.3-.07s.18-.04.23-.05c.4-.09.78-.18,1.16-.28.16-.03.34-.07.52-.12l.19-.04c.3-.07.61-.14.9-.22.71-.17,1.41-.36,2.12-.56.5-.13,1.12-.3,1.74-.48.17-.04.33-.09.5-.14.06-.01.12-.03.18-.05.85-.24,1.55-.45,2.22-.67.29-.08.56-.17.83-.27l.46-.15.55-.17c.42-.12.81-.25,1.21-.4,1.29-.43,2.59-.89,3.87-1.38.58-.22,1.2-.46,1.83-.7l.61-.24c.33-.13.66-.26.99-.4.43-.18.9-.37,1.36-.56.11-.04.22-.09.33-.14.36-.16.72-.32,1.07-.47l.43-.18.86-.4c1.25-.55,2.5-1.13,3.74-1.74.49-.23.97-.47,1.44-.71l.33-.17.62-.32.69-.35c.08-.04.15-.08.23-.12.66-.34,1.17-.61,1.67-.9l.29-.16c.67-.35,1.33-.72,1.99-1.09.69-.39,1.41-.81,2.13-1.22.06-.03.12-.07.18-.11l.77-.47.78-.47s.06-.04.1-.06c.25-.15.54-.33.86-.53l.07-.04c.57-.35,1.13-.7,1.69-1.06.04-.03.08-.05.12-.08l.18-.11c1.25-.81,2.59-1.69,3.9-2.62.67-.44,1.32-.91,1.98-1.38l.21-.15c4.09-2.94,8.17-6.21,12.1-9.72.72-.63,1.5-1.32,2.27-2.03.72-.66,1.5-1.38,2.27-2.11.08-.08.17-.16.25-.24h0c.66-.63,1.43-1.36,2.18-2.13,1.27-1.24,2.63-2.63,3.96-4.05.47-.49,1.01-1.07,1.55-1.65.3-.31.7-.75,1.12-1.22.05-.06.1-.11.14-.17,2.67-3.17,2.91-7.67.6-10.95-.73-1.03-2.12-2.52-4.15-4.4l-25.09-25.85-2.24-2.31c-.56-.58-1.21-1.06-1.93-1.44-1.29-.67-2.75-1.03-4.21-1.03-2.75,0-5.33,1.22-7.08,3.34-4.98,5.98-10.54,10.98-16.51,14.83-.08.05-.17.11-.25.17-.24.17-.48.34-.72.5-2.48,1.64-5.06,3.13-7.7,4.45-2.68,1.34-5.41,2.51-8.11,3.47-4.25,1.53-8.75,2.69-13.41,3.47-4.68.78-9.59,1.17-14.57,1.17-11.31,0-21.71-2.44-30.91-7.27-3.52-1.85-6.9-4.04-10.04-6.51-1.25-.98-2.39-1.94-3.42-2.87-1.13-1-2.14-1.95-3.08-2.9-5.81-5.79-10.36-12.5-13.59-20.04,2.02-2.55,3.43-5.55,4.11-8.75.67-.17,1.33-.38,1.98-.62,8.31-2.97,13.94-10.97,13.94-19.87v-12.64c0-6.29-2.78-12.21-7.63-16.24-2.41-2.01-5.26-3.46-8.29-4.23-.41-1.96-1.09-3.84-2.04-5.58,1.07-1.98,2.25-3.9,3.53-5.75.95-1.37,2.04-2.81,3.25-4.28,1.11-1.33,2.37-2.71,3.81-4.16.65-.66,1.29-1.28,1.94-1.87,13.89-12.76,30.84-19.23,50.4-19.23,11.52,0,22.32,2.31,32.09,6.87.09.04.19.09.28.13,3.17,1.49,6.28,3.25,9.25,5.22,5.12,3.39,10.04,7.55,14.61,12.36.05.06.1.11.15.17h0c.68.73,1.37,1.48,2.05,2.24l1.25,1.44c.42.49.9.92,1.43,1.28,1.54,1.05,3.33,1.61,5.2,1.61,2.65,0,5.17-1.15,6.92-3.14l23.47-26.6,6.69-7.59c.24-.27.46-.56.65-.86.08-.12.16-.25.23-.37,2.04-3.51,1.6-7.91-1.1-10.94ZM307.05,95.7s-.03.03-.03.04l-6.69,7.59-23.49,26.62c-.34.38-.8.58-1.27.58-.33,0-.66-.1-.95-.29l-1.33-1.53c-.71-.79-1.42-1.57-2.14-2.34-.03-.01-.04-.04-.04-.05-5.04-5.32-10.4-9.86-16.08-13.62-3.38-2.24-6.88-4.2-10.48-5.88-.01-.01-.03-.01-.04-.01-10.8-5.04-22.58-7.58-35.27-7.58-21.52,0-40.17,7.13-55.47,21.19-.75.69-1.49,1.4-2.22,2.14-1.5,1.52-2.93,3.06-4.28,4.69-1.26,1.54-2.49,3.14-3.61,4.77-2.32,3.36-4.35,6.92-6.06,10.68.75.79,1.41,1.68,1.94,2.63,1.13,1.95,1.75,4.23,1.75,6.65v2.53h2.14c3.18.05,6.12,1.22,8.42,3.14,2.99,2.49,4.92,6.25,4.92,10.45v12.64c0,5.9-3.77,10.93-9.03,12.81-1.06.39-2.2.64-3.38.74-.39.04-.78.05-1.18.05h-1.88v2.52c0,4.62-2.32,8.72-5.86,11.16,3.63,10.43,9.33,19.57,17.06,27.26,1.09,1.1,2.22,2.16,3.36,3.17,1.24,1.13,2.52,2.2,3.83,3.22,3.56,2.81,7.31,5.23,11.2,7.27,10.33,5.41,21.84,8.12,34.4,8.12,5.44,0,10.72-.43,15.81-1.27,5.08-.85,9.99-2.11,14.69-3.8,3.06-1.09,6.06-2.38,8.96-3.83,2.9-1.45,5.72-3.08,8.46-4.89.31-.2.62-.42.93-.63,6.62-4.27,12.71-9.72,18.24-16.37.32-.39.79-.6,1.27-.6.26,0,.51.06.75.18l2.24,2.31,25.22,25.99s2.59,2.4,3.26,3.36c.37.52.2,1.28-.21,1.77-.35.39-.68.77-1.03,1.13-.5.54-.99,1.07-1.5,1.6-1.26,1.34-2.55,2.66-3.86,3.94-.68.7-1.38,1.37-2.08,2.03-.05.05-.11.09-.15.15-.74.7-1.48,1.38-2.22,2.05-.71.66-1.44,1.3-2.16,1.94-3.76,3.35-7.59,6.42-11.51,9.24-.67.48-1.33.97-2.01,1.41-1.26.9-2.55,1.75-3.84,2.58-.08.05-.15.09-.23.15-.58.38-1.17.74-1.76,1.1-.23.15-.44.28-.67.42-.04.03-.07.04-.11.07-.52.32-1.05.63-1.57.95-.7.4-1.4.81-2.08,1.2-.59.34-1.18.67-1.79.98l-.44.24c-.43.24-.86.47-1.3.7-.13.07-.26.13-.38.2-.42.21-.82.41-1.24.63-.54.27-1.07.55-1.64.81-1.18.59-2.38,1.14-3.57,1.67-.26.12-.51.24-.78.36-.53.23-1.06.46-1.6.7-.51.2-1.03.42-1.54.63-.44.19-.91.36-1.37.55-.59.23-1.18.46-1.79.68-1.24.47-2.5.91-3.75,1.33-.27.11-.52.19-.81.27-.43.13-.85.27-1.28.4-.22.08-.43.15-.66.21-.6.2-1.22.39-1.84.56-.11.03-.24.07-.36.09-.16.06-.31.1-.47.13-.56.18-1.15.34-1.73.48-.67.19-1.33.36-2,.52-.32.09-.66.16-.99.24-.03.01-.05.03-.11.03-.08.03-.17.04-.26.06-.4.11-.79.2-1.2.29-.07.01-.12.03-.17.04-.55.12-1.09.24-1.62.35h-.01c-.4.09-.79.16-1.18.26-.47.08-.95.19-1.44.27-.21.05-.43.08-.64.12-.46.09-.89.16-1.33.24-.32.05-.66.11-.99.15t-.01.02c-.63.1-1.28.2-1.89.28-.66.11-1.32.19-1.98.28-.28.04-.54.07-.82.11-1.33.17-2.64.32-3.98.43-.19.01-.36.03-.54.04-.54.07-1.09.11-1.63.13-.38.05-.77.07-1.14.1-.52.04-1.05.07-1.58.09-.26,0-.5.03-.77.04t-.03.01h-.08c-.74.04-1.48.05-2.23.08-.68.03-1.37.04-2.05.07-.77,0-1.52.01-2.28.01-3.02,0-5.99-.08-8.93-.23-17.06-.87-32.7-4.28-46.94-10.26-6.23-2.61-12.2-5.72-17.88-9.31-7.39-4.66-14.32-10.15-20.78-16.45-1.91-1.87-3.73-3.77-5.49-5.69-13.74-15.11-23.01-32.5-27.79-52.19-.03-.12-.07-.24-.1-.36-.07-.28-.12-.54-.2-.81-5.51-1.73-9.51-6.89-9.51-12.97v-2.52h-1.85c-7.51,0-13.61-6.1-13.61-13.61v-12.64c0-7.5,6.1-13.59,13.61-13.59h1.85v-2.53c0-6.7,4.87-12.28,11.25-13.4.81-2.74,1.69-5.45,2.69-8.13.05-.15.13-.32.19-.48,1.13-2.98,2.35-5.91,3.71-8.77,6.23-13.2,14.88-25.2,25.96-36.02,4.27-4.18,8.7-7.99,13.3-11.46,1.67-1.26,3.36-2.47,5.09-3.63,19.34-13.19,41.41-20.4,66.19-21.68,2.63-.12,5.29-.19,7.99-.19h.54c1.48,0,2.93.04,4.39.08,22.26.68,42.48,6.14,60.68,16.35,2.48,1.4,4.93,2.87,7.33,4.45,1.85,1.21,3.68,2.48,5.51,3.79,8.04,5.87,15.65,12.74,22.81,20.68.54.6.61,1.48.21,2.15Z"/><path class="cls-1" d="M360.92,127.6v-57.42h16.38l8.11,28.83c.59,2.14,1.19,4.51,1.81,7.11.61,2.6,1.08,4.64,1.4,6.14l.4,2.25h.16c1.02-5.51,2.19-10.68,3.53-15.5l8.11-28.83h16.62v57.42h-10.84v-32.92l.48-11.88h-.16c-.86,4.5-1.69,8.14-2.49,10.92l-9.88,33.89h-11.16l-9.64-33.89-2.49-10.92h-.16c.32,4.82.48,8.78.48,11.88v32.92h-10.68Z"/><path class="cls-1" d="M425.4,79.98v-9.8h10.92v9.8h-10.92ZM425.4,127.6v-41.2h10.92v41.2h-10.92Z"/><path class="cls-1" d="M454.07,86.41v5.62h.24c2.84-4.5,6.91-6.75,12.21-6.75,4.23,0,7.65,1.43,10.28,4.3,2.62,2.86,3.94,6.57,3.94,11.12v26.9h-10.92v-25.3c0-2.25-.63-4.07-1.89-5.46-1.26-1.39-3.01-2.09-5.26-2.09-2.41,0-4.4.88-5.98,2.65-1.58,1.77-2.37,4.04-2.37,6.83v23.37h-10.92v-41.2h10.68Z"/><path class="cls-1" d="M487.47,79.98v-9.8h10.92v9.8h-10.92ZM487.47,127.6v-41.2h10.92v41.2h-10.92Z"/><path class="cls-1" d="M522.16,128.81c-5.89,0-10.49-1.3-13.81-3.89-3.32-2.6-5.14-6.14-5.46-10.64h10.12c.7,4.55,3.69,6.83,8.99,6.83,2.41,0,4.27-.43,5.58-1.29,1.31-.86,1.97-2.01,1.97-3.45,0-.53-.1-1.02-.28-1.45-.19-.43-.51-.82-.96-1.16-.45-.35-.86-.63-1.2-.84-.35-.21-.95-.43-1.81-.64-.86-.21-1.51-.37-1.97-.48-.46-.11-1.23-.25-2.33-.44-1.1-.19-1.86-.33-2.29-.44-2.25-.43-4.08-.87-5.5-1.32-1.42-.45-2.9-1.12-4.46-2.01-1.55-.88-2.72-2.09-3.49-3.61-.78-1.52-1.16-3.36-1.16-5.5,0-4.28,1.57-7.55,4.7-9.8,3.13-2.25,7.16-3.37,12.08-3.37,5.3,0,9.46,1.22,12.49,3.65,3.02,2.44,4.75,5.77,5.18,10h-9.88c-.43-4.02-3.08-6.02-7.95-6.02-2.2,0-3.92.4-5.18,1.2-1.26.8-1.89,1.93-1.89,3.37,0,.48.09.92.28,1.32.19.4.51.75.96,1.04.45.3.89.54,1.32.72.43.19,1.04.37,1.85.56.8.19,1.5.35,2.09.48.59.13,1.39.3,2.41.48,1.02.19,1.82.33,2.41.44,1.71.37,3.12.71,4.21,1,1.1.3,2.37.78,3.81,1.45,1.45.67,2.58,1.42,3.41,2.25.83.83,1.55,1.95,2.17,3.37.62,1.42.92,3.07.92,4.94,0,4.07-1.59,7.29-4.78,9.68-3.19,2.38-7.38,3.57-12.57,3.57Z"/><path class="cls-1" d="M541.19,93.64v-7.23h5.7v-12.85h10.68v12.85h7.07v7.23h-7.07v21.84c0,2.73,1.36,4.1,4.1,4.1l3.21-.08v8.03c-1.66.11-3.94.16-6.83.16-3.16,0-5.81-.76-7.95-2.29-2.14-1.53-3.21-4.06-3.21-7.59v-24.17h-5.7Z"/><path class="cls-1" d="M589.22,128.81c-6.64,0-11.86-2.05-15.66-6.14-3.8-4.1-5.7-9.33-5.7-15.7s1.9-11.31,5.7-15.46c3.8-4.15,8.67-6.22,14.61-6.22,6.48,0,11.48,2.25,15.02,6.75,3.53,4.5,5.3,10.52,5.3,18.07h-29.87c.43,3.27,1.53,5.8,3.29,7.59,1.77,1.79,4.18,2.69,7.23,2.69,4.01,0,6.66-1.69,7.95-5.06h10.76c-.8,3.85-2.84,7.07-6.1,9.64-3.27,2.57-7.44,3.85-12.53,3.85ZM588.33,93.72c-5.3,0-8.49,2.95-9.56,8.83h18.31c-.16-2.62-1.04-4.75-2.65-6.38-1.61-1.63-3.64-2.45-6.1-2.45Z"/><path class="cls-1" d="M624.07,86.41v6.59h.24c1.28-2.41,2.7-4.19,4.26-5.34,1.55-1.15,3.51-1.73,5.86-1.73,1.12,0,1.98.11,2.57.32v9.56h-.24c-3.69-.37-6.66.43-8.91,2.41-2.25,1.98-3.37,5.09-3.37,9.32v20.08h-10.92v-41.2h10.52Z"/><path class="cls-1" d="M641.73,79.98v-9.8h10.92v9.8h-10.92ZM641.73,127.6v-41.2h10.92v41.2h-10.92Z"/><path class="cls-1" d="M694.73,122.58c-4.02,4.15-9.18,6.22-15.5,6.22s-11.48-2.07-15.5-6.22c-4.01-4.15-6.02-9.33-6.02-15.54s2.01-11.39,6.02-15.54c4.01-4.15,9.18-6.22,15.5-6.22s11.48,2.08,15.5,6.22c4.01,4.15,6.02,9.33,6.02,15.54s-2.01,11.39-6.02,15.54ZM679.23,120.46c3.27,0,5.82-1.22,7.67-3.65,1.85-2.44,2.77-5.69,2.77-9.76s-.92-7.33-2.77-9.8c-1.85-2.46-4.4-3.69-7.67-3.69s-5.89,1.22-7.71,3.65c-1.82,2.44-2.73,5.72-2.73,9.84s.91,7.32,2.73,9.76c1.82,2.44,4.39,3.65,7.71,3.65Z"/><path class="cls-1" d="M734.72,128.81c-5.19,0-9.4-1.97-12.61-5.9-3.21-3.93-4.82-9.22-4.82-15.86s1.65-11.66,4.94-15.7c3.29-4.04,7.51-6.06,12.65-6.06s9.02,2.04,11.64,6.1h.24v-21.2h10.92v57.42h-10.52v-5.38h-.16c-2.68,4.39-6.77,6.59-12.28,6.59ZM737.13,119.65c3.21,0,5.66-1.1,7.35-3.29,1.69-2.19,2.53-5.22,2.53-9.07,0-8.78-3.19-13.17-9.56-13.17-2.95,0-5.19,1.18-6.74,3.53-1.56,2.36-2.33,5.49-2.33,9.4s.76,7.12,2.29,9.32c1.53,2.2,3.68,3.29,6.46,3.29Z"/><path class="cls-1" d="M784.11,128.81c-6.64,0-11.86-2.05-15.66-6.14-3.8-4.1-5.7-9.33-5.7-15.7s1.9-11.31,5.7-15.46c3.8-4.15,8.67-6.22,14.61-6.22,6.48,0,11.48,2.25,15.02,6.75,3.53,4.5,5.3,10.52,5.3,18.07h-29.87c.43,3.27,1.53,5.8,3.29,7.59,1.77,1.79,4.18,2.69,7.23,2.69,4.01,0,6.66-1.69,7.95-5.06h10.76c-.8,3.85-2.84,7.07-6.1,9.64-3.27,2.57-7.44,3.85-12.53,3.85ZM783.22,93.72c-5.3,0-8.49,2.95-9.56,8.83h18.31c-.16-2.62-1.04-4.75-2.65-6.38-1.61-1.63-3.64-2.45-6.1-2.45Z"/><path class="cls-1" d="M847.95,128.81c-8.08,0-14.71-2.8-19.88-8.39-5.17-5.59-7.75-12.7-7.75-21.32s2.52-15.85,7.55-21.52c5.03-5.67,11.7-8.51,19.99-8.51,6.85,0,12.35,1.81,16.5,5.42,4.15,3.61,6.54,8.26,7.19,13.93h-11.56c-.53-2.94-1.86-5.27-3.97-6.99-2.12-1.71-4.83-2.57-8.15-2.57-5.09,0-8.97,1.87-11.64,5.62-2.68,3.75-4.02,8.62-4.02,14.61s1.43,10.79,4.3,14.53c2.86,3.75,6.68,5.62,11.44,5.62,3.37,0,6.18-.92,8.43-2.77,2.25-1.85,3.56-4.3,3.94-7.35h11.4c-.32,5.41-2.44,9.93-6.34,13.57-4.34,4.07-10.15,6.1-17.43,6.1Z"/><path class="cls-1" d="M876.86,79.98v-9.8h10.92v9.8h-10.92ZM876.86,127.6v-41.2h10.92v41.2h-10.92Z"/><path class="cls-1" d="M914.2,128.81c-6.64,0-11.86-2.05-15.66-6.14-3.8-4.1-5.7-9.33-5.7-15.7s1.9-11.31,5.7-15.46c3.8-4.15,8.67-6.22,14.61-6.22,6.48,0,11.48,2.25,15.02,6.75,3.54,4.5,5.3,10.52,5.3,18.07h-29.87c.43,3.27,1.53,5.8,3.29,7.59,1.77,1.79,4.18,2.69,7.23,2.69,4.01,0,6.66-1.69,7.95-5.06h10.76c-.8,3.85-2.84,7.07-6.1,9.64-3.27,2.57-7.44,3.85-12.53,3.85ZM913.31,93.72c-5.3,0-8.49,2.95-9.56,8.83h18.31c-.16-2.62-1.04-4.75-2.65-6.38-1.61-1.63-3.64-2.45-6.1-2.45Z"/><path class="cls-1" d="M949.21,86.41v5.62h.24c2.84-4.5,6.91-6.75,12.21-6.75,4.23,0,7.65,1.43,10.28,4.3,2.62,2.86,3.94,6.57,3.94,11.12v26.9h-10.92v-25.3c0-2.25-.63-4.07-1.89-5.46-1.26-1.39-3.01-2.09-5.26-2.09-2.41,0-4.4.88-5.98,2.65-1.58,1.77-2.37,4.04-2.37,6.83v23.37h-10.92v-41.2h10.68Z"/><path class="cls-1" d="M1001.72,128.81c-6.37,0-11.48-2.06-15.34-6.18-3.86-4.12-5.78-9.32-5.78-15.58s1.89-11.45,5.66-15.58c3.77-4.12,8.74-6.18,14.9-6.18,5.19,0,9.42,1.36,12.69,4.1,3.26,2.73,5.27,6.4,6.02,11h-10.68c-.37-1.87-1.23-3.4-2.57-4.58-1.34-1.18-3-1.77-4.98-1.77-3.21,0-5.67,1.15-7.39,3.45-1.71,2.3-2.57,5.49-2.57,9.56s.83,7.19,2.49,9.52c1.66,2.33,4.1,3.49,7.31,3.49,4.76,0,7.52-2.33,8.27-6.99h10.52c-.38,4.55-2.22,8.31-5.54,11.28-3.32,2.97-7.66,4.46-13.01,4.46Z"/><path class="cls-1" d="M1025.01,79.98v-9.8h10.92v9.8h-10.92ZM1025.01,127.6v-41.2h10.92v41.2h-10.92Z"/><path class="cls-1" d="M1068.94,127.6c-.54-.7-.96-2.22-1.28-4.58h-.16c-1.18,1.77-2.68,3.13-4.5,4.1-1.82.96-4.36,1.45-7.63,1.45-4.34,0-7.82-1.1-10.44-3.29-2.62-2.19-3.94-5.3-3.94-9.32s1.44-7.24,4.34-9.19c2.89-1.95,6.96-3.31,12.21-4.06,3.85-.53,6.48-1.08,7.87-1.65,1.39-.56,2.09-1.57,2.09-3.01s-.59-2.69-1.77-3.57c-1.18-.88-2.89-1.32-5.14-1.32-4.98,0-7.63,1.93-7.95,5.78h-9.72c.16-3.91,1.74-7.15,4.74-9.72,3-2.57,7.33-3.85,13.01-3.85,11.56,0,17.35,5.06,17.35,15.18v20.96c0,3.11.48,5.01,1.44,5.7v.4h-10.52ZM1058.02,120.94c3,0,5.37-.78,7.11-2.33,1.74-1.55,2.61-3.4,2.61-5.54v-6.18c-1.18.7-3.72,1.5-7.63,2.41-3.1.7-5.3,1.49-6.58,2.37-1.29.88-1.93,2.24-1.93,4.06,0,3.48,2.14,5.22,6.42,5.22Z"/><path class="cls-1" d="M379.39,203.14c-6.64,0-11.86-2.05-15.66-6.14-3.8-4.1-5.7-9.33-5.7-15.7s1.9-11.31,5.7-15.46c3.8-4.15,8.67-6.22,14.61-6.22,6.48,0,11.48,2.25,15.02,6.75s5.3,10.52,5.3,18.07h-29.87c.43,3.27,1.53,5.8,3.29,7.59,1.77,1.79,4.18,2.69,7.23,2.69,4.01,0,6.66-1.69,7.95-5.06h10.76c-.8,3.85-2.84,7.07-6.1,9.64-3.27,2.57-7.44,3.85-12.53,3.85ZM378.5,168.05c-5.3,0-8.49,2.95-9.56,8.83h18.31c-.16-2.62-1.04-4.75-2.65-6.38-1.61-1.63-3.64-2.45-6.1-2.45Z"/><path class="cls-1" d="M418.17,201.94v-57.42h11.64v57.42h-11.64Z"/><path class="cls-1" d="M448.52,160.74v5.62h.24c2.84-4.5,6.91-6.75,12.21-6.75,4.23,0,7.65,1.43,10.28,4.3,2.62,2.86,3.94,6.57,3.94,11.12v26.9h-10.92v-25.3c0-2.25-.63-4.07-1.89-5.46-1.26-1.39-3.01-2.09-5.26-2.09-2.41,0-4.4.88-5.98,2.65-1.58,1.77-2.37,4.04-2.37,6.83v23.37h-10.92v-41.2h10.68Z"/><path class="cls-1" d="M492.61,160.74v5.62h.24c2.84-4.5,6.91-6.75,12.21-6.75,4.23,0,7.65,1.43,10.28,4.3,2.62,2.86,3.94,6.57,3.94,11.12v26.9h-10.92v-25.3c0-2.25-.63-4.07-1.89-5.46-1.26-1.39-3.01-2.09-5.26-2.09-2.41,0-4.4.88-5.98,2.65-1.58,1.77-2.37,4.04-2.37,6.83v23.37h-10.92v-41.2h10.68Z"/><path class="cls-1" d="M561.03,196.92c-4.02,4.15-9.18,6.22-15.5,6.22s-11.48-2.07-15.5-6.22c-4.01-4.15-6.02-9.33-6.02-15.54s2.01-11.39,6.02-15.54c4.01-4.15,9.18-6.22,15.5-6.22s11.48,2.08,15.5,6.22c4.01,4.15,6.02,9.33,6.02,15.54s-2.01,11.39-6.02,15.54ZM545.53,194.79c3.27,0,5.82-1.22,7.67-3.65,1.85-2.44,2.77-5.69,2.77-9.76s-.92-7.33-2.77-9.8c-1.85-2.46-4.4-3.69-7.67-3.69s-5.89,1.22-7.71,3.65c-1.82,2.44-2.73,5.72-2.73,9.84s.91,7.32,2.73,9.76c1.82,2.44,4.39,3.65,7.71,3.65Z"/><path class="cls-1" d="M581.83,201.94l-14.29-41.2h11.08l6.59,21.36,1.85,6.59h.16c.37-1.77.96-3.96,1.77-6.59l6.74-21.36h10.92l-14.37,41.2h-10.44Z"/><path class="cls-1" d="M635.07,201.94c-.54-.7-.96-2.22-1.29-4.58h-.16c-1.18,1.77-2.68,3.13-4.5,4.1-1.82.96-4.36,1.45-7.63,1.45-4.34,0-7.82-1.1-10.44-3.29-2.62-2.19-3.94-5.3-3.94-9.32s1.45-7.24,4.34-9.19c2.89-1.95,6.96-3.31,12.21-4.06,3.86-.53,6.48-1.08,7.87-1.65s2.09-1.57,2.09-3.01-.59-2.69-1.77-3.57c-1.18-.88-2.89-1.32-5.14-1.32-4.98,0-7.63,1.93-7.95,5.78h-9.72c.16-3.91,1.74-7.15,4.74-9.72,3-2.57,7.33-3.85,13.01-3.85,11.56,0,17.35,5.06,17.35,15.18v20.96c0,3.11.48,5.01,1.45,5.7v.4h-10.52ZM624.14,195.28c3,0,5.37-.78,7.11-2.33,1.74-1.55,2.61-3.4,2.61-5.54v-6.18c-1.18.7-3.72,1.5-7.63,2.41-3.11.7-5.3,1.49-6.59,2.37-1.29.88-1.93,2.24-1.93,4.06,0,3.48,2.14,5.22,6.42,5.22Z"/><path class="cls-1" d="M670.16,203.14c-6.37,0-11.48-2.06-15.34-6.18-3.86-4.12-5.78-9.32-5.78-15.58s1.89-11.45,5.66-15.58c3.77-4.12,8.74-6.18,14.9-6.18,5.19,0,9.42,1.36,12.69,4.1,3.26,2.73,5.27,6.4,6.02,11h-10.68c-.37-1.87-1.23-3.4-2.57-4.58-1.34-1.18-3-1.77-4.98-1.77-3.21,0-5.67,1.15-7.39,3.45-1.71,2.3-2.57,5.49-2.57,9.56s.83,7.19,2.49,9.52c1.66,2.33,4.1,3.49,7.31,3.49,4.76,0,7.52-2.33,8.27-6.99h10.52c-.38,4.55-2.22,8.31-5.54,11.28-3.32,2.97-7.66,4.46-13.01,4.46Z"/><path class="cls-1" d="M693.44,154.32v-9.8h10.92v9.8h-10.92ZM693.44,201.94v-41.2h10.92v41.2h-10.92Z"/><path class="cls-1" d="M746.45,196.92c-4.02,4.15-9.18,6.22-15.5,6.22s-11.48-2.07-15.5-6.22c-4.01-4.15-6.02-9.33-6.02-15.54s2.01-11.39,6.02-15.54c4.01-4.15,9.18-6.22,15.5-6.22s11.48,2.08,15.5,6.22c4.01,4.15,6.02,9.33,6.02,15.54s-2.01,11.39-6.02,15.54ZM730.95,194.79c3.27,0,5.82-1.22,7.67-3.65,1.85-2.44,2.77-5.69,2.77-9.76s-.92-7.33-2.77-9.8c-1.85-2.46-4.4-3.69-7.67-3.69s-5.89,1.22-7.71,3.65c-1.82,2.44-2.73,5.72-2.73,9.84s.91,7.32,2.73,9.76c1.82,2.44,4.39,3.65,7.71,3.65ZM743.8,144.28l-8.67,11.32h-8.51l4.42-11.32h12.77Z"/><path class="cls-1" d="M768.21,160.74v5.62h.24c2.84-4.5,6.91-6.75,12.21-6.75,4.23,0,7.65,1.43,10.28,4.3,2.62,2.86,3.94,6.57,3.94,11.12v26.9h-10.92v-25.3c0-2.25-.63-4.07-1.89-5.46-1.26-1.39-3.01-2.09-5.26-2.09-2.41,0-4.4.88-5.98,2.65-1.58,1.77-2.37,4.04-2.37,6.83v23.37h-10.92v-41.2h10.68Z"/><path class="cls-1" d="M813.01,154.32v-9.8h46.17v9.8h-17.27v47.62h-11.64v-47.62h-17.27Z"/><path class="cls-1" d="M874.29,203.14c-6.64,0-11.86-2.05-15.66-6.14-3.8-4.1-5.7-9.33-5.7-15.7s1.9-11.31,5.7-15.46c3.8-4.15,8.67-6.22,14.61-6.22,6.48,0,11.48,2.25,15.02,6.75,3.54,4.5,5.3,10.52,5.3,18.07h-29.87c.43,3.27,1.53,5.8,3.29,7.59,1.77,1.79,4.18,2.69,7.23,2.69,4.01,0,6.66-1.69,7.95-5.06h10.76c-.8,3.85-2.84,7.07-6.1,9.64s-7.44,3.85-12.53,3.85ZM873.4,168.05c-5.3,0-8.49,2.95-9.56,8.83h18.31c-.16-2.62-1.04-4.75-2.65-6.38-1.61-1.63-3.64-2.45-6.1-2.45Z"/><path class="cls-1" d="M917.73,203.14c-6.37,0-11.48-2.06-15.34-6.18-3.85-4.12-5.78-9.32-5.78-15.58s1.89-11.45,5.66-15.58c3.77-4.12,8.74-6.18,14.9-6.18,5.19,0,9.42,1.36,12.69,4.1,3.27,2.73,5.27,6.4,6.02,11h-10.68c-.37-1.87-1.23-3.4-2.57-4.58-1.34-1.18-3-1.77-4.98-1.77-3.21,0-5.68,1.15-7.39,3.45-1.71,2.3-2.57,5.49-2.57,9.56s.83,7.19,2.49,9.52c1.66,2.33,4.09,3.49,7.31,3.49,4.76,0,7.52-2.33,8.27-6.99h10.52c-.37,4.55-2.22,8.31-5.54,11.28-3.32,2.97-7.66,4.46-13.01,4.46Z"/><path class="cls-1" d="M951.7,160.74v5.62h.24c2.84-4.5,6.91-6.75,12.21-6.75,4.23,0,7.65,1.43,10.28,4.3,2.62,2.86,3.94,6.57,3.94,11.12v26.9h-10.92v-25.3c0-2.25-.63-4.07-1.89-5.46-1.26-1.39-3.01-2.09-5.26-2.09-2.41,0-4.4.88-5.98,2.65-1.58,1.77-2.37,4.04-2.37,6.83v23.37h-10.92v-41.2h10.68Z"/><path class="cls-1" d="M1020.12,196.92c-4.02,4.15-9.18,6.22-15.5,6.22s-11.48-2.07-15.5-6.22c-4.01-4.15-6.02-9.33-6.02-15.54s2.01-11.39,6.02-15.54c4.01-4.15,9.18-6.22,15.5-6.22s11.48,2.08,15.5,6.22c4.01,4.15,6.02,9.33,6.02,15.54s-2.01,11.39-6.02,15.54ZM1004.62,194.79c3.27,0,5.82-1.22,7.67-3.65,1.85-2.44,2.77-5.69,2.77-9.76s-.92-7.33-2.77-9.8c-1.85-2.46-4.4-3.69-7.67-3.69s-5.89,1.22-7.71,3.65c-1.82,2.44-2.73,5.72-2.73,9.84s.91,7.32,2.73,9.76c1.82,2.44,4.39,3.65,7.71,3.65Z"/><path class="cls-1" d="M1031.36,201.94v-57.42h10.92v57.42h-10.92Z"/><path class="cls-1" d="M1084.52,196.92c-4.01,4.15-9.18,6.22-15.5,6.22s-11.48-2.07-15.5-6.22c-4.01-4.15-6.02-9.33-6.02-15.54s2.01-11.39,6.02-15.54c4.02-4.15,9.18-6.22,15.5-6.22s11.48,2.08,15.5,6.22c4.01,4.15,6.02,9.33,6.02,15.54s-2.01,11.39-6.02,15.54ZM1069.02,194.79c3.27,0,5.82-1.22,7.67-3.65,1.85-2.44,2.77-5.69,2.77-9.76s-.92-7.33-2.77-9.8c-1.85-2.46-4.4-3.69-7.67-3.69s-5.89,1.22-7.71,3.65c-1.82,2.44-2.73,5.72-2.73,9.84s.91,7.32,2.73,9.76c1.82,2.44,4.39,3.65,7.71,3.65ZM1081.87,144.28l-8.67,11.32h-8.51l4.42-11.32h12.77Z"/><path class="cls-1" d="M1113.74,215.99c-5.57,0-10.03-1.13-13.37-3.37-3.35-2.25-5.31-5.41-5.9-9.48h10.84c1.07,3.05,3.83,4.58,8.27,4.58,6.1,0,9.16-2.86,9.16-8.59v-4.5h-.24c-2.84,3.21-6.42,4.82-10.76,4.82-4.87,0-9.11-1.79-12.73-5.38-3.61-3.59-5.42-8.35-5.42-14.29s1.66-10.99,4.98-14.66c3.32-3.67,7.6-5.5,12.85-5.5,4.98,0,8.78,1.82,11.4,5.46h.16v-4.34h10.52v38.06c0,5.35-1.63,9.53-4.9,12.53-3.32,3.1-8.27,4.66-14.86,4.66ZM1113.58,190.7c3.27,0,5.7-1.04,7.31-3.13,1.61-2.09,2.41-4.77,2.41-8.03s-.84-5.87-2.53-7.99c-1.69-2.11-4.11-3.17-7.27-3.17-2.78,0-5.02,1.02-6.71,3.05-1.69,2.04-2.53,4.77-2.53,8.19s.84,6.2,2.53,8.15c1.69,1.95,3.95,2.93,6.79,2.93Z"/><path class="cls-1" d="M1140.57,154.32v-9.8h10.92v9.8h-10.92ZM1140.57,201.94v-41.2h10.92v41.2h-10.92Z"/><path class="cls-1" d="M1177.67,203.14c-6.37,0-11.48-2.06-15.34-6.18-3.85-4.12-5.78-9.32-5.78-15.58s1.89-11.45,5.66-15.58c3.77-4.12,8.74-6.18,14.9-6.18,5.19,0,9.42,1.36,12.69,4.1,3.27,2.73,5.27,6.4,6.02,11h-10.68c-.37-1.87-1.23-3.4-2.57-4.58-1.34-1.18-3-1.77-4.98-1.77-3.21,0-5.68,1.15-7.39,3.45-1.71,2.3-2.57,5.49-2.57,9.56s.83,7.19,2.49,9.52c1.66,2.33,4.09,3.49,7.31,3.49,4.76,0,7.52-2.33,8.27-6.99h10.52c-.37,4.55-2.22,8.31-5.54,11.28-3.32,2.97-7.66,4.46-13.01,4.46Z"/><path class="cls-1" d="M1227.69,201.94c-.54-.7-.96-2.22-1.29-4.58h-.16c-1.18,1.77-2.68,3.13-4.5,4.1-1.82.96-4.36,1.45-7.63,1.45-4.34,0-7.82-1.1-10.44-3.29-2.62-2.19-3.94-5.3-3.94-9.32s1.45-7.24,4.34-9.19c2.89-1.95,6.96-3.31,12.21-4.06,3.86-.53,6.48-1.08,7.87-1.65,1.39-.56,2.09-1.57,2.09-3.01s-.59-2.69-1.77-3.57c-1.18-.88-2.89-1.32-5.14-1.32-4.98,0-7.63,1.93-7.95,5.78h-9.72c.16-3.91,1.74-7.15,4.74-9.72,3-2.57,7.33-3.85,13.01-3.85,11.56,0,17.35,5.06,17.35,15.18v20.96c0,3.11.48,5.01,1.45,5.7v.4h-10.52ZM1216.77,195.28c3,0,5.37-.78,7.11-2.33,1.74-1.55,2.61-3.4,2.61-5.54v-6.18c-1.18.7-3.72,1.5-7.63,2.41-3.11.7-5.3,1.49-6.59,2.37-1.29.88-1.93,2.24-1.93,4.06,0,3.48,2.14,5.22,6.42,5.22Z"/><path class="cls-1" d="M386.61,277.4c-8.08,0-14.59-2.78-19.51-8.35-4.93-5.57-7.39-12.74-7.39-21.52s2.45-15.83,7.35-21.48c4.9-5.65,11.52-8.47,19.88-8.47,6.53,0,11.8,1.69,15.82,5.06,4.01,3.37,6.42,7.79,7.23,13.25h-7.07c-.7-3.64-2.45-6.56-5.26-8.75-2.81-2.19-6.44-3.29-10.88-3.29-6.16,0-10.97,2.21-14.45,6.62-3.48,4.42-5.22,10.11-5.22,17.06s1.81,12.76,5.42,17.06c3.61,4.31,8.39,6.46,14.33,6.46,5.14,0,9.11-1.5,11.93-4.5,2.81-3,4.4-6.77,4.78-11.32h7.15c-.05,2.84-.71,5.74-1.97,8.71-1.26,2.97-2.9,5.45-4.94,7.43-4.12,4.01-9.85,6.02-17.18,6.02Z"/><path class="cls-1" d="M450.45,276.68c-4.12,0-6.5-2.06-7.15-6.18h-.08c-3.43,4.39-8.03,6.58-13.81,6.58-4.12,0-7.5-.99-10.12-2.97-2.62-1.98-3.94-4.84-3.94-8.59,0-1.93.31-3.6.92-5.02.61-1.42,1.41-2.57,2.37-3.45.96-.88,2.29-1.66,3.97-2.33,1.69-.67,3.31-1.18,4.86-1.53,1.55-.35,3.53-.71,5.94-1.08,1.55-.21,2.66-.39,3.33-.52.67-.13,1.54-.35,2.61-.64,1.07-.29,1.82-.63,2.25-1,.43-.37.83-.88,1.21-1.53.37-.64.56-1.39.56-2.25,0-2.36-.82-4.16-2.45-5.42-1.63-1.26-3.92-1.89-6.87-1.89-6.69,0-10.15,3.05-10.36,9.15h-6.26c.11-4.23,1.57-7.63,4.38-10.2,2.81-2.57,6.86-3.85,12.17-3.85,10.22,0,15.34,4.39,15.34,13.17v19.76c0,1.82.31,3.11.92,3.85.62.75,1.78.94,3.49.56h.24v4.74c-1.07.43-2.25.64-3.53.64ZM430.86,272.1c4.02,0,7.12-1.16,9.32-3.49,2.19-2.33,3.29-4.88,3.29-7.67v-7.07c-1.98,1.23-5.14,2.25-9.48,3.05-1.61.32-2.87.58-3.78.76-.91.19-1.95.51-3.13.96-1.18.46-2.06.95-2.65,1.49-.59.53-1.1,1.24-1.53,2.13s-.64,1.91-.64,3.09c0,4.5,2.86,6.75,8.59,6.75Z"/><path class="cls-1" d="M455.35,240.06v-5.3h6.02v-13.09h6.5v13.09h8.03v5.3h-8.03v26.98c0,2.57,1.39,3.85,4.18,3.85,1.18,0,2.33-.19,3.45-.56h.24v5.62c-1.77.37-3.51.56-5.22.56-6.1,0-9.15-2.68-9.15-8.03v-28.43h-6.02Z"/><path class="cls-1" d="M515.26,276.68c-4.12,0-6.51-2.06-7.15-6.18h-.08c-3.43,4.39-8.03,6.58-13.81,6.58-4.12,0-7.5-.99-10.12-2.97-2.62-1.98-3.94-4.84-3.94-8.59,0-1.93.31-3.6.92-5.02.62-1.42,1.41-2.57,2.37-3.45.96-.88,2.29-1.66,3.98-2.33,1.69-.67,3.3-1.18,4.86-1.53,1.55-.35,3.53-.71,5.94-1.08,1.55-.21,2.66-.39,3.33-.52.67-.13,1.54-.35,2.61-.64,1.07-.29,1.82-.63,2.25-1,.43-.37.83-.88,1.2-1.53s.56-1.39.56-2.25c0-2.36-.82-4.16-2.45-5.42-1.63-1.26-3.92-1.89-6.87-1.89-6.69,0-10.15,3.05-10.36,9.15h-6.26c.11-4.23,1.57-7.63,4.38-10.2,2.81-2.57,6.87-3.85,12.17-3.85,10.23,0,15.34,4.39,15.34,13.17v19.76c0,1.82.31,3.11.92,3.85.62.75,1.78.94,3.49.56h.24v4.74c-1.07.43-2.25.64-3.53.64ZM495.66,272.1c4.01,0,7.12-1.16,9.31-3.49,2.19-2.33,3.29-4.88,3.29-7.67v-7.07c-1.98,1.23-5.14,2.25-9.48,3.05-1.61.32-2.87.58-3.77.76-.91.19-1.95.51-3.13.96-1.18.46-2.06.95-2.65,1.49-.59.53-1.1,1.24-1.53,2.13-.43.88-.64,1.91-.64,3.09,0,4.5,2.86,6.75,8.59,6.75Z"/><path class="cls-1" d="M523.61,276.28v-41.52h6.51v5.94h.16c1.34-2.09,3.08-3.76,5.22-5.02,2.14-1.26,4.47-1.89,6.99-1.89,5.41,0,9.02,2.46,10.84,7.39h.16c1.29-2.3,3.08-4.11,5.38-5.42,2.3-1.31,4.74-1.97,7.31-1.97,3.8,0,6.85,1.16,9.16,3.49,2.3,2.33,3.45,5.61,3.45,9.84v29.15h-6.51v-28.83c0-2.52-.74-4.51-2.21-5.98-1.47-1.47-3.28-2.21-5.42-2.21-2.73,0-5.11,1.07-7.15,3.21-2.03,2.14-3.05,4.79-3.05,7.95v25.86h-6.5v-28.83c0-2.52-.66-4.51-1.97-5.98-1.31-1.47-3.04-2.21-5.18-2.21-2.68,0-5.13,1.08-7.35,3.25-2.22,2.17-3.33,4.8-3.33,7.91v25.86h-6.51Z"/><path class="cls-1" d="M619.97,276.68c-4.12,0-6.5-2.06-7.15-6.18h-.08c-3.43,4.39-8.03,6.58-13.81,6.58-4.12,0-7.5-.99-10.12-2.97-2.62-1.98-3.94-4.84-3.94-8.59,0-1.93.31-3.6.92-5.02.61-1.42,1.41-2.57,2.37-3.45.96-.88,2.29-1.66,3.97-2.33,1.69-.67,3.31-1.18,4.86-1.53,1.55-.35,3.53-.71,5.94-1.08,1.55-.21,2.66-.39,3.33-.52.67-.13,1.54-.35,2.61-.64,1.07-.29,1.82-.63,2.25-1,.43-.37.83-.88,1.21-1.53.37-.64.56-1.39.56-2.25,0-2.36-.82-4.16-2.45-5.42-1.63-1.26-3.92-1.89-6.87-1.89-6.69,0-10.15,3.05-10.36,9.15h-6.26c.11-4.23,1.57-7.63,4.38-10.2s6.86-3.85,12.17-3.85c10.22,0,15.34,4.39,15.34,13.17v19.76c0,1.82.31,3.11.92,3.85.62.75,1.78.94,3.49.56h.24v4.74c-1.07.43-2.25.64-3.53.64ZM600.38,272.1c4.02,0,7.12-1.16,9.32-3.49,2.19-2.33,3.29-4.88,3.29-7.67v-7.07c-1.98,1.23-5.14,2.25-9.48,3.05-1.61.32-2.87.58-3.78.76-.91.19-1.95.51-3.13.96-1.18.46-2.06.95-2.65,1.49-.59.53-1.1,1.24-1.53,2.13s-.64,1.91-.64,3.09c0,4.5,2.86,6.75,8.59,6.75Z"/><path class="cls-1" d="M634.83,234.76v6.91h.16c1.34-2.19,3.08-3.97,5.22-5.34,2.14-1.36,4.52-2.05,7.15-2.05.96,0,1.85.16,2.65.48v6.26h-.24c-.8-.27-1.77-.4-2.89-.4-3.32,0-6.16,1.16-8.51,3.49s-3.53,5.37-3.53,9.11v23.05h-6.5v-41.52h6.5Z"/><path class="cls-1" d="M672.01,277.4c-6.05,0-10.91-2.09-14.58-6.26-3.67-4.18-5.5-9.37-5.5-15.58s1.83-11.4,5.5-15.58c3.67-4.18,8.52-6.26,14.58-6.26,4.87,0,8.86,1.3,11.96,3.89,3.1,2.6,5.03,6.12,5.78,10.56h-6.59c-.48-2.84-1.69-5.06-3.61-6.67-1.93-1.61-4.44-2.41-7.55-2.41-4.28,0-7.59,1.55-9.92,4.66-2.33,3.11-3.49,7.04-3.49,11.8s1.16,8.69,3.49,11.76c2.33,3.08,5.63,4.62,9.92,4.62,3.32,0,5.97-.9,7.95-2.69,1.98-1.79,3.1-4.32,3.37-7.59h6.42c-.43,4.98-2.2,8.85-5.3,11.6-3.1,2.76-7.25,4.14-12.45,4.14Z"/><path class="cls-1" d="M729.34,276.68c-4.12,0-6.51-2.06-7.15-6.18h-.08c-3.43,4.39-8.03,6.58-13.81,6.58-4.12,0-7.5-.99-10.12-2.97-2.62-1.98-3.94-4.84-3.94-8.59,0-1.93.31-3.6.92-5.02.62-1.42,1.41-2.57,2.37-3.45.96-.88,2.29-1.66,3.98-2.33,1.69-.67,3.3-1.18,4.86-1.53,1.55-.35,3.53-.71,5.94-1.08,1.55-.21,2.66-.39,3.33-.52.67-.13,1.54-.35,2.61-.64,1.07-.29,1.82-.63,2.25-1,.43-.37.83-.88,1.2-1.53s.56-1.39.56-2.25c0-2.36-.82-4.16-2.45-5.42-1.63-1.26-3.92-1.89-6.87-1.89-6.69,0-10.15,3.05-10.36,9.15h-6.26c.11-4.23,1.57-7.63,4.38-10.2,2.81-2.57,6.87-3.85,12.17-3.85,10.23,0,15.34,4.39,15.34,13.17v19.76c0,1.82.31,3.11.92,3.85.62.75,1.78.94,3.49.56h.24v4.74c-1.07.43-2.25.64-3.53.64ZM709.75,272.1c4.01,0,7.12-1.16,9.31-3.49,2.19-2.33,3.29-4.88,3.29-7.67v-7.07c-1.98,1.23-5.14,2.25-9.48,3.05-1.61.32-2.87.58-3.77.76-.91.19-1.95.51-3.13.96-1.18.46-2.06.95-2.65,1.49-.59.53-1.1,1.24-1.53,2.13-.43.88-.64,1.91-.64,3.09,0,4.5,2.86,6.75,8.59,6.75Z"/><path class="cls-1" d="M796.39,276.28l-2.09-7.55h-.16c-4.17,5.84-10.15,8.75-17.91,8.75s-14.53-2.76-19.51-8.27c-4.98-5.51-7.47-12.66-7.47-21.44s2.42-15.99,7.27-21.64c4.85-5.65,11.63-8.47,20.36-8.47,6.53,0,11.82,1.65,15.86,4.94,4.04,3.29,6.54,7.8,7.51,13.53h-7.47c-.8-3.91-2.57-6.92-5.3-9.03-2.73-2.11-6.32-3.17-10.76-3.17-6.64,0-11.64,2.2-15.02,6.59-3.37,4.39-5.06,10.15-5.06,17.26s1.85,12.68,5.54,16.98c3.69,4.31,8.46,6.46,14.29,6.46s9.92-1.66,12.89-4.98c2.97-3.32,4.46-7.55,4.46-12.69v-1.37h-17.26v-6.26h24.49v30.35h-4.66Z"/><path class="cls-1" d="M842.33,271.14c-3.64,4.18-8.49,6.26-14.53,6.26s-10.91-2.09-14.58-6.26c-3.67-4.18-5.5-9.37-5.5-15.58s1.83-11.4,5.5-15.58c3.67-4.18,8.52-6.26,14.58-6.26s10.89,2.09,14.53,6.26c3.64,4.18,5.46,9.37,5.46,15.58s-1.82,11.4-5.46,15.58ZM817.87,267.32c2.33,3.08,5.63,4.62,9.92,4.62s7.58-1.54,9.88-4.62c2.3-3.08,3.45-7,3.45-11.76s-1.16-8.77-3.49-11.84c-2.33-3.08-5.61-4.62-9.84-4.62s-7.59,1.55-9.92,4.66c-2.33,3.11-3.49,7.04-3.49,11.8s1.16,8.69,3.49,11.76Z"/><path class="cls-1" d="M874.04,277.48c-5.51,0-9.88-2.22-13.09-6.67h-.16v5.46h-6.5v-57.42h6.5v21.84h.16c3.37-4.6,7.82-6.91,13.33-6.91s9.63,1.94,12.85,5.82c3.21,3.88,4.82,9.22,4.82,16.02s-1.59,12.01-4.78,15.94c-3.19,3.94-7.56,5.9-13.13,5.9ZM873.56,272.02c3.86,0,6.77-1.49,8.75-4.46,1.98-2.97,2.97-6.92,2.97-11.85s-.99-8.82-2.97-11.84c-1.98-3.02-4.87-4.54-8.67-4.54-4.34,0-7.63,1.54-9.88,4.62-2.25,3.08-3.37,7-3.37,11.76s1.13,8.81,3.37,11.81,5.51,4.5,9.8,4.5Z"/><path class="cls-1" d="M898.46,226.89v-8.03h6.5v8.03h-6.5ZM898.46,276.28v-41.52h6.5v41.52h-6.5Z"/><path class="cls-1" d="M931.54,277.4c-6.16,0-11.04-2.07-14.66-6.22-3.61-4.15-5.42-9.36-5.42-15.62s1.83-11.34,5.5-15.54c3.67-4.2,8.39-6.3,14.17-6.3,6.1,0,10.81,2.13,14.13,6.38,3.32,4.26,4.98,9.92,4.98,16.98h-32.12c.27,4.39,1.57,7.96,3.9,10.72,2.33,2.76,5.5,4.14,9.51,4.14,6.21,0,10.04-2.84,11.48-8.51h6.34c-.96,4.44-3,7.88-6.1,10.32-3.11,2.44-7.01,3.65-11.73,3.65ZM939.81,242.39c-2.09-2.35-4.98-3.53-8.67-3.53s-6.62,1.23-8.79,3.69c-2.17,2.46-3.52,5.68-4.06,9.64h24.98c-.22-4.18-1.37-7.44-3.45-9.8Z"/><path class="cls-1" d="M963.1,234.76v6.91h.16c1.34-2.19,3.08-3.97,5.22-5.34,2.14-1.36,4.52-2.05,7.15-2.05.96,0,1.85.16,2.65.48v6.26h-.24c-.8-.27-1.77-.4-2.89-.4-3.32,0-6.16,1.16-8.51,3.49s-3.53,5.37-3.53,9.11v23.05h-6.5v-41.52h6.5Z"/><path class="cls-1" d="M990.64,234.76v5.46h.16c3.21-4.28,7.6-6.42,13.17-6.42,4.39,0,7.82,1.15,10.28,3.45,2.46,2.3,3.69,5.59,3.69,9.88v29.15h-6.51v-28.59c0-2.68-.83-4.75-2.49-6.22-1.66-1.47-3.96-2.21-6.91-2.21-3.32,0-6.05,1.07-8.19,3.21-2.14,2.14-3.21,4.9-3.21,8.27v25.54h-6.51v-41.52h6.51Z"/><path class="cls-1" d="M1058.82,271.14c-3.64,4.18-8.49,6.26-14.53,6.26s-10.91-2.09-14.57-6.26c-3.67-4.18-5.5-9.37-5.5-15.58s1.83-11.4,5.5-15.58c3.67-4.18,8.52-6.26,14.57-6.26s10.89,2.09,14.53,6.26c3.64,4.18,5.46,9.37,5.46,15.58s-1.82,11.4-5.46,15.58ZM1034.37,267.32c2.33,3.08,5.63,4.62,9.92,4.62s7.58-1.54,9.88-4.62c2.3-3.08,3.45-7,3.45-11.76s-1.16-8.77-3.49-11.84c-2.33-3.08-5.61-4.62-9.84-4.62s-7.59,1.55-9.92,4.66c-2.33,3.11-3.49,7.04-3.49,11.8s1.16,8.69,3.49,11.76Z"/></svg>